<svg viewBox="0 0 60 60" >
<path fill-rule="evenodd" clip-rule="evenodd" d="M29.9408 5C31.1357 5 31.7745 5.04785 32.2477 5.19139C32.6026 5.29904 33.1468 5.51435 33.4662 5.66986C33.7737 5.82536 34.2706 6.20813 34.5663 6.5311C34.8621 6.84211 35.2643 7.41627 35.4536 7.811C35.6429 8.20574 35.7967 8.58852 35.7967 8.64833C35.7967 8.73206 33.7856 8.76794 30 8.76794C26.2144 8.76794 24.2033 8.73206 24.2033 8.64833C24.2033 8.58852 24.3571 8.20574 24.5346 7.811C24.7239 7.41627 25.1379 6.83014 25.4573 6.50718C25.7767 6.18421 26.2499 5.8134 26.5102 5.68182C26.7704 5.55024 27.2791 5.34689 27.634 5.22727C28.119 5.05981 28.6869 5.01196 29.9408 5ZM26.2381 10.1435C27.007 10.1435 27.634 10.1794 27.634 10.2392C27.634 10.2871 25.0551 13.3493 16.159 23.7799H9.29766V38.7321H21.8374V23.7799L18.6788 23.7201L20.9383 21.0766C22.1804 19.6292 24.7239 16.6507 30 10.5024L41.2621 23.7201L38.1626 23.7799V38.7321H50.7023V23.7799L43.7818 23.7679L38.1035 17.1172C34.9804 13.4569 32.4133 10.3828 32.3896 10.299C32.3778 10.1794 32.6617 10.1435 33.7264 10.1435C34.8858 10.1435 35.1578 10.1794 35.5837 10.3947C35.8676 10.5383 40.5878 13.2057 46.0887 16.3278C51.5896 19.4498 56.1796 22.1172 56.2979 22.2608C56.4162 22.4043 56.5108 22.6675 56.499 22.8589C56.499 23.0383 56.3689 23.3134 56.2033 23.4809C55.9312 23.7679 55.872 23.7799 52.5951 23.7799V36.3995C52.5951 46.3876 52.6306 49.0311 52.7489 49.067C52.8199 49.1029 53.1275 49.1507 53.4232 49.1866C53.7426 49.2225 54.1922 49.4139 54.5471 49.6411C54.8901 49.8804 55.2805 50.2751 55.4935 50.622C55.8365 51.1842 55.8484 51.2799 55.9193 54.3421L55.2569 55H4.74314L4.08067 54.3421L4.11616 52.7751C4.15165 51.2799 4.16348 51.1842 4.50654 50.622C4.71948 50.2751 5.10987 49.8804 5.45294 49.6411C5.80783 49.4139 6.25737 49.2225 6.57678 49.1866C6.87252 49.1507 7.1801 49.1029 7.26291 49.067C7.36938 49.0311 7.40487 46.3876 7.40487 23.7799H5.74868C4.13982 23.7799 4.08067 23.7679 3.79675 23.4809C3.63113 23.3134 3.501 23.0383 3.501 22.8589C3.48917 22.6675 3.58381 22.4043 3.70211 22.2608C3.82041 22.1172 8.46956 19.4258 14.0296 16.2679C19.5897 13.122 24.298 10.4545 24.4991 10.3469C24.7712 10.2033 25.1971 10.1555 26.2499 10.1435H26.2381ZM23.7183 38.7321H36.258V23.7799H23.7183V38.7321ZM9.28583 49.1388H14.2544V40.6459H9.28583V49.1388ZM16.1472 49.1388H21.8255V40.6459H16.1472V49.1388ZM23.7183 49.1388H29.0418V40.6459H23.7183V49.1388ZM30.9346 49.1388H36.258V40.6459H30.9346V49.1388ZM38.1508 49.1388H43.8292V40.6459H38.1508V49.1388ZM45.7219 49.1388H50.6905V40.6459H45.7219V49.1388Z" />
</svg>
